<?xml version="1.0" encoding="utf-8"?>
<!-- Generator: Adobe Illustrator 16.0.0, SVG Export Plug-In . SVG Version: 6.00 Build 0)  -->
<!DOCTYPE svg PUBLIC "-//W3C//DTD SVG 1.1//EN" "http://www.w3.org/Graphics/SVG/1.1/DTD/svg11.dtd">
<svg version="1.1" id="Layer_1" xmlns="http://www.w3.org/2000/svg" xmlns:xlink="http://www.w3.org/1999/xlink" x="0px" y="0px"
	 width="519.477px" height="519.477px" viewBox="0 0 519.477 519.477" enable-background="new 0 0 519.477 519.477"
	 xml:space="preserve">
<rect x="-340.261" y="-340.261" display="none" fill="#FFFFFF" stroke="#231F20" stroke-miterlimit="10" width="1200" height="1200"/>
<g id="Layer_2">
	<circle fill="#FFFFFF" stroke="#FFFFFF" stroke-miterlimit="10" cx="258.397" cy="263.709" r="253.138"/>
</g>
<g>
	<g>
		<g>
			<g>
				<path stroke="#000000" stroke-width="10.4319" stroke-miterlimit="10" d="M412.062,408.853l-19.224,19.212l-29.509-44.477
					c0,0-125.796,21.134-152.219-143.77c0,0,15.347-2.089,37.573-1.176c6.436,0.254,13.456,0.771,20.842,1.656
					c17.125,2.042,36.255,6.088,54.782,13.69c11.113,4.564,22.028,10.389,32.162,17.831c14.839,10.878,28.031,25.199,37.864,43.972
					c2.146,4.093,4.131,8.402,5.938,12.938C408.797,350.099,413.361,376.418,412.062,408.853z"/>
				<path fill="#FFA300" d="M394.337,315.794c-12.931,20.409-35.715,33.96-61.66,33.96c-40.28,0-72.938-32.658-72.938-72.938
					c0-13.304,3.553-25.78,9.791-36.521c17.125,2.045,36.253,6.094,54.782,13.695c11.113,4.565,22.02,10.391,32.162,17.827
					C371.305,282.703,384.505,297.018,394.337,315.794z"/>
				<path d="M357.735,275.964c0,13.427-10.886,24.313-24.313,24.313s-24.313-10.886-24.313-24.313
					c0-10.494,6.651-19.438,15.946-22.826c11.113,4.565,22.021,10.39,32.163,17.827C357.549,272.577,357.735,274.25,357.735,275.964
					z"/>
				<path d="M182.088,110.723l-8.5,80.362l69.553,60.378l-25.155,7.276l-47.569-41.227c0,0-45.455,13.742-67.654,78.225
					c0,0,5.285-71.883,36.998-104.652l-15.856-123.68L182.088,110.723z"/>
				<polygon points="144.066,277.559 211.111,392.383 303.072,428.065 				"/>
				<path d="M123.468,295.025c0,0-5.957,93.773,107.19,153.799C230.658,448.824,78.811,431.681,123.468,295.025z"/>
				<polygon points="365.44,251.462 325.27,148.924 368.612,66.471 289.396,150.622 237.532,67.528 257.616,183.808 				"/>
				<path d="M396.713,67.404c0,0-72.939,78.225-21.143,150.107C375.571,217.512,372.276,142.458,396.713,67.404z"/>
			</g>
			<path fill="#FFA300" d="M321.787,285.305c-13.454,0-13.454,20.863,0,20.863S335.241,285.305,321.787,285.305z"/>
		</g>
	</g>
	<circle fill="none" stroke="#000000" stroke-width="15.8837" stroke-miterlimit="10" cx="259.739" cy="259.739" r="251.797"/>
</g>
</svg>
